<svg xmlns="http://www.w3.org/2000/svg" width="29.75" height="30.187" viewBox="0 0 29.75 30.187">
    <path data-name="Path 126" d="M77.329 176h-4.276a.5.5 0 1 0 0 1.006h4.276a.5.5 0 1 0 0-1.006z" transform="translate(-68.207 -164.932)" style="fill:#8d8c8c"/>
    <path data-name="Path 127" d="M77.329 250.975h-4.276a.5.5 0 0 0 0 1.006h4.276a.5.5 0 1 0 0-1.006z" transform="translate(-68.207 -235.192)" style="fill:#8d8c8c"/>
    <path data-name="Path 128" d="M109.191 325h-2.138a.5.5 0 1 0 0 1.006h2.138a.5.5 0 0 0 0-1.006z" transform="translate(-100.068 -304.562)" style="fill:#8d8c8c"/>
    <path data-name="Path 129" d="M87.265 52.025v-2.516A1.511 1.511 0 0 0 85.756 48h-11.7a1.511 1.511 0 0 0-1.509 1.509v1.258a.5.5 0 0 0 1.006 0v-1.258a.5.5 0 0 1 .5-.5h11.7a.5.5 0 0 1 .5.5v2.515a.5.5 0 0 1-.5.5H74.5a.5.5 0 0 0 0 1.006h11.256a1.511 1.511 0 0 0 1.509-1.505z" transform="translate(-68.207 -44.981)" style="fill:#8d8c8c"/>
    <path data-name="Path 130" d="M241.367 297.226a1.511 1.511 0 0 0 1.509-1.509v-3.207a1.511 1.511 0 0 0-1.509-1.51h-5.534a1.511 1.511 0 0 0-1.509 1.509v1.191h-2.264a1.511 1.511 0 0 0-1.509 1.509v3.27a1.511 1.511 0 0 0 1.509 1.509h1.761a.5.5 0 0 0 0-1.006h-1.761a.5.5 0 0 1-.5-.5v-1.258zm-6.037-2.515h2.77v1.509h-2.767zm6.54 1.006a.5.5 0 0 1-.5.5h-2.27v-1.507h2.767zm0-3.207v1.19h-2.77V292h2.264a.5.5 0 0 1 .506.509zm-6.54 0a.5.5 0 0 1 .5-.5h2.27v1.7h-2.767zm-3.773 2.7a.5.5 0 0 1 .5-.5h2.264v1.509h-2.767z" transform="translate(-216.271 -272.7)" style="fill:#8d8c8c"/>
    <path data-name="Path 131" d="M33.228 15.91v-2.452a2.015 2.015 0 0 0-2.012-2.012h-2.39V10.5a.5.5 0 0 0-1.006 0v.943h-.755V2.012A2.015 2.015 0 0 0 25.052 0H5.495a2.015 2.015 0 0 0-2.013 2.012c0 22.975-.034 21.986.084 22.163.044.065-.313-.3 5.849 5.863a.507.507 0 0 0 .189.118 23.348 23.348 0 0 0 3.3.029.5.5 0 1 0 0-1.006h-2.63v-4.064a1.723 1.723 0 0 0-1.721-1.721H7.422a.5.5 0 1 0 0 1.006h1.131a.716.716 0 0 1 .715.715v3.353l-4.78-4.78V2.012a1.007 1.007 0 0 1 1.007-1.006h19.557a1.007 1.007 0 0 1 1.006 1.006v9.433h-1.635V10.5a.5.5 0 0 0-1.006 0v.943h-3.4V10.5a.5.5 0 0 0-1.006 0v.943h-2.39a2.015 2.015 0 0 0-2.012 2.012v14.718a2.015 2.015 0 0 0 2.012 2.012h14.59a2.015 2.015 0 0 0 2.012-2.012v-8.928a.5.5 0 1 0-1.006 0v8.928a1.007 1.007 0 0 1-1.006 1.006H16.626a1.007 1.007 0 0 1-1.006-1.006V13.458a1.007 1.007 0 0 1 1.006-1.006h2.39v.943a.5.5 0 1 0 1.006 0v-.943h3.4v.943a.5.5 0 1 0 1.006 0v-.943h3.4v.943a.5.5 0 1 0 1.006 0v-.943h2.39a1.007 1.007 0 0 1 1.006 1.006v1.949H17.646a.5.5 0 1 0 0 1.006h15.079a.5.5 0 0 0 .503-.503z" transform="translate(-3.478)" style="fill:#8d8c8c"/>
</svg>
