<svg xmlns="http://www.w3.org/2000/svg" width="38.208" height="33.596" viewBox="0 0 38.208 33.596">
    <g data-name="teamwork (1)">
        <path data-name="Path 149" d="M78.363 33.133a14.325 14.325 0 1 0 14.325 14.325 14.341 14.341 0 0 0-14.325-14.325zm0 26.344a12.019 12.019 0 1 1 12.019-12.019 12.019 12.019 0 0 1-12.019 12.019z" transform="translate(-59.259 -32.967)" style="fill:#efedef"/>
        <g data-name="Group 25">
            <path data-name="Path 150" d="M17.067 39.438a8.511 8.511 0 0 1-2.747 6.272c-1.521 1.4-3.553 1.723-5.786 1.723s-4.266-.319-5.786-1.723a8.533 8.533 0 1 1 14.32-6.272z" transform="translate(0 -30.905)" style="fill:#8795de"/>
            <path data-name="Path 151" d="M42.6 166.383a8.5 8.5 0 0 0 5.786-2.262 5.813 5.813 0 0 0-11.572 0 8.5 8.5 0 0 0 5.786 2.262z" transform="translate(-34.069 -149.316)" style="fill:#fee97d"/>
            <path data-name="Path 152" d="M100.051 158.865a5.835 5.835 0 0 0-1.153.115 5.773 5.773 0 0 1 .768.211 3.682 3.682 0 0 1-.714 7.107l-.053.007a8.609 8.609 0 0 0 1.153.078 8.5 8.5 0 0 0 5.786-2.262 5.813 5.813 0 0 0-5.787-5.256z" transform="translate(-91.518 -149.316)" style="fill:#f4da6e"/>
            <path data-name="Path 153" d="M75.343 84.684a3.146 3.146 0 0 1-3.143-3.146v-1.061a3.146 3.146 0 0 1 6.291 0v1.061a3.146 3.146 0 0 1-3.146 3.146z" transform="translate(-66.809 -73.866)" style="fill:#ffdfcf"/>
            <path data-name="Path 154" d="M100.051 77.33a3.136 3.136 0 0 0-1.153.219 3.146 3.146 0 0 1 1.993 2.927v1.061a3.146 3.146 0 0 1-1.991 2.927 3.145 3.145 0 0 0 4.3-2.927v-1.061a3.146 3.146 0 0 0-3.149-3.146z" transform="translate(-91.518 -73.866)" style="fill:#ffcebf"/>
        </g>
        <g data-name="Group 26">
            <path data-name="Path 155" d="M158.716 260.926a8.511 8.511 0 0 1-2.747 6.272 9.967 9.967 0 0 1-11.573 0 8.533 8.533 0 1 1 14.32-6.272z" transform="translate(-131.078 -235.864)" style="fill:#8795de"/>
            <path data-name="Path 156" d="M184.251 387.871a8.5 8.5 0 0 0 5.786-2.262 5.813 5.813 0 0 0-11.572 0 8.5 8.5 0 0 0 5.786 2.262z" transform="translate(-165.147 -354.275)" style="fill:#f58a97"/>
            <path data-name="Path 157" d="M241.7 380.353a5.838 5.838 0 0 0-1.153.115 5.775 5.775 0 0 1 .768.211 3.682 3.682 0 0 1-.714 7.107l-.053.007a8.6 8.6 0 0 0 1.153.078 8.5 8.5 0 0 0 5.786-2.262 5.813 5.813 0 0 0-5.786-5.256z" transform="translate(-222.596 -354.275)" style="fill:#f07281"/>
            <path data-name="Path 158" d="M216.992 306.172a3.146 3.146 0 0 1-3.146-3.146v-1.061a3.146 3.146 0 0 1 6.291 0v1.061a3.145 3.145 0 0 1-3.145 3.146z" transform="translate(-197.887 -278.825)" style="fill:#f1b0a2"/>
            <path data-name="Path 159" d="M241.7 298.818a3.136 3.136 0 0 0-1.153.219 3.146 3.146 0 0 1 1.993 2.927v1.061a3.146 3.146 0 0 1-1.993 2.927 3.145 3.145 0 0 0 4.3-2.927v-1.061a3.146 3.146 0 0 0-3.147-3.146z" transform="translate(-222.596 -278.825)" style="fill:#eb9c8d"/>
        </g>
        <g data-name="Group 27">
            <path data-name="Path 160" d="M300.365 39.438a8.511 8.511 0 0 1-2.747 6.272c-1.521 1.4-3.553 1.339-5.786 1.339s-4.266.065-5.786-1.339a8.533 8.533 0 1 1 14.32-6.272z" transform="translate(-262.157 -30.905)" style="fill:#8795de"/>
            <path data-name="Path 161" d="M325.9 166.383a8.5 8.5 0 0 0 5.786-2.262 5.813 5.813 0 0 0-11.572 0 8.5 8.5 0 0 0 5.786 2.262z" transform="translate(-296.226 -149.316)" style="fill:#c9f6b0"/>
            <path data-name="Path 162" d="M383.349 158.865a5.835 5.835 0 0 0-1.153.115 5.773 5.773 0 0 1 .768.211 3.682 3.682 0 0 1-.714 7.107l-.053.007a8.609 8.609 0 0 0 1.153.078 8.5 8.5 0 0 0 5.786-2.262 5.813 5.813 0 0 0-5.787-5.256z" transform="translate(-353.675 -149.316)" style="fill:#9be69d"/>
            <path data-name="Path 163" d="M358.641 84.684a3.146 3.146 0 0 1-3.146-3.146v-1.061a3.146 3.146 0 0 1 6.291 0v1.061a3.145 3.145 0 0 1-3.145 3.146z" transform="translate(-328.966 -73.866)" style="fill:#ffdfcf"/>
            <path data-name="Path 164" d="M383.349 77.33a3.135 3.135 0 0 0-1.153.219 3.146 3.146 0 0 1 1.993 2.927v1.061a3.146 3.146 0 0 1-1.993 2.927 3.145 3.145 0 0 0 4.3-2.927v-1.061a3.146 3.146 0 0 0-3.147-3.146z" transform="translate(-353.675 -73.866)" style="fill:#ffcebf"/>
        </g>
    </g>
</svg>
