<svg xmlns="http://www.w3.org/2000/svg" width="44.528" height="37.57" viewBox="0 0 44.528 37.57">
    <path data-name="Path 35" d="M335.66 184.474c0 1.157-.7 2.094-1.554 2.094s-1.357-1.077-1.357-2.234.5-1.955 1.357-1.955 1.554.938 1.554 2.095zm0 0" transform="translate(-303.811 -166.518)" style="fill:#e8916f"/>
    <path data-name="Path 36" d="M478.539 184.474c0 1.157.7 2.094 1.554 2.094s1.357-1.077 1.357-2.234-.5-1.955-1.357-1.955-1.554.938-1.554 2.095zm0 0" transform="translate(-436.921 -166.518)" style="fill:#d98868"/>
    <path data-name="Path 37" d="M404.156 281.125h3.169v5.075h-3.169zm0 0" transform="translate(-369.007 -256.676)" style="fill:#d98868"/>
    <path data-name="Path 38" d="M356.793 127.309v-4.282a5.378 5.378 0 0 1 5.378-5.378h.65a5.378 5.378 0 0 1 5.378 5.378v4.282a5.7 5.7 0 0 1-5.7 5.7h-.009a5.7 5.7 0 0 1-5.697-5.7zm0 0" transform="translate(-325.763 -107.417)" style="fill:#ebad88"/>
    <path data-name="Path 39" d="M412.717 117.648h-.642a5.422 5.422 0 0 0-.629.038 5.388 5.388 0 0 1 4.753 5.353v4.261a5.711 5.711 0 0 1-4.753 5.633 5.7 5.7 0 0 0 6.654-5.633v-4.257a5.387 5.387 0 0 0-5.383-5.395zm0 0" transform="translate(-375.663 -107.417)" style="fill:#e8916f"/>
    <path data-name="Path 40" d="M351.95 323.351v.725a.348.348 0 0 1-.348.348h-14.133a.348.348 0 0 1-.348-.348v-.725c0-3.119 2.193-5.648 4.9-5.648h5.031c2.705-.003 4.898 2.529 4.898 5.648zm0 0" transform="translate(-307.802 -290.073)" style="fill:#47d5e6"/>
    <path data-name="Path 41" d="M423.082 317.7h-2.688c2.706 0 4.9 2.529 4.9 5.648v1.072h2.34a.348.348 0 0 0 .348-.348v-.725c-.001-3.115-2.194-5.647-4.9-5.647zm0 0" transform="translate(-383.833 -290.073)" style="fill:#22c0d4"/>
    <path data-name="Path 42" d="M395.066 317.7h4.75l-2.375 6.72zm0 0" transform="translate(-360.708 -290.073)" style="fill:#dcdfe8"/>
    <path data-name="Path 43" d="m383.967 318.518-1.68-7.081a.261.261 0 0 0-.339-.187l-1.4.486a.348.348 0 0 0-.237.33v2.467a.26.26 0 0 0 .071.179zm0 0" transform="translate(-347.234 -284.168)" style="fill:#20b5c7"/>
    <path data-name="Path 44" d="m422.375 318.518 1.68-7.081a.261.261 0 0 1 .339-.187l1.4.486a.348.348 0 0 1 .237.33v2.467a.259.259 0 0 1-.071.179zm0 0" transform="translate(-385.642 -284.168)" style="fill:#20b5c7"/>
    <path data-name="Path 45" d="M342.135 97.526s.475.192.962-.724c.557-1.047 2.025-1.631 3.784-1.567 2.031.073 2.948-.587 3.416-1.3a.087.087 0 0 1 .156.019c.6 1.773 1.4 1.336 1.934 2.975a.815.815 0 0 0 1.139.6s2.269-1.318 1.1-3.41c.2-4.205-3.091-4.454-3.091-4.454s-1.5-1.914-5.63-.918c-5.952 1.436-4.9 5.625-4.9 5.625a2.322 2.322 0 0 0 1.13 3.154zm0 0" transform="translate(-311.13 -80.764)" style="fill:#ffd659"/>
    <path data-name="Path 46" d="M417.136 94.13c.2-4.2-3.091-4.454-3.091-4.454s-1.306-1.658-4.814-1.083a4.45 4.45 0 0 1 1.627.654 4.953 4.953 0 0 0 1.171.585c.952.326 2.562 1.32 2.42 4.3a2.173 2.173 0 0 1 .127 2.085 3.4 3.4 0 0 1 .322.727.815.815 0 0 0 1.139.6s2.269-1.321 1.099-3.414zm0 0" transform="translate(-373.64 -80.778)" style="fill:#ffbd54"/>
    <path data-name="Path 47" d="M71.41 281.125h3.169v5.075H71.41zm0 0" transform="translate(-65.2 -256.676)" style="fill:#d98868"/>
    <path data-name="Path 48" d="M24.047 127.309v-4.282a5.378 5.378 0 0 1 5.378-5.378h.65a5.378 5.378 0 0 1 5.378 5.378v4.282a5.7 5.7 0 0 1-5.7 5.7h-.009a5.7 5.7 0 0 1-5.697-5.7zm0 0" transform="translate(-21.956 -107.417)" style="fill:#ebad88"/>
    <path data-name="Path 49" d="M79.967 117.648h-.642a5.422 5.422 0 0 0-.63.038 5.388 5.388 0 0 1 4.753 5.353v4.261a5.711 5.711 0 0 1-4.753 5.633 5.7 5.7 0 0 0 6.654-5.633v-4.257a5.386 5.386 0 0 0-5.382-5.395zm0 0" transform="translate(-71.851 -107.417)" style="fill:#e8916f"/>
    <path data-name="Path 50" d="M19.2 323.351v.725a.348.348 0 0 1-.348.348H4.719a.348.348 0 0 1-.348-.348v-.725c0-3.119 2.193-5.648 4.9-5.648H14.3c2.707-.003 4.9 2.529 4.9 5.648zm0 0" transform="translate(-3.991 -290.073)" style="fill:#ff2c5c"/>
    <path data-name="Path 51" d="M90.332 317.7h-2.687c2.706 0 4.9 2.529 4.9 5.648v1.072h2.34a.348.348 0 0 0 .348-.348v-.725c-.002-3.115-2.195-5.647-4.901-5.647zm0 0" transform="translate(-80.022 -290.073)" style="fill:#e62753"/>
    <path data-name="Path 52" d="M62.32 317.7h4.75l-2.375 6.72zm0 0" transform="translate(-56.9 -290.073)" style="fill:#dcdfe8"/>
    <path data-name="Path 53" d="m51.221 318.491-1.681-7.084a.261.261 0 0 0-.337-.187l-1.4.472a.348.348 0 0 0-.237.33v2.484a.26.26 0 0 0 .071.179zm0 0" transform="translate(-43.426 -284.141)" style="fill:#d6244d"/>
    <path data-name="Path 54" d="m89.625 318.491 1.681-7.084a.261.261 0 0 1 .337-.187l1.4.472a.348.348 0 0 1 .237.33v2.484a.261.261 0 0 1-.071.179zm0 0" transform="translate(-81.83 -284.141)" style="fill:#d6244d"/>
    <path data-name="Path 55" d="M8.9 97.532s-3.329 1.5-4.479 3.431c-1.511 2.54-1.551 5.16-2.3 7.658a.174.174 0 0 1-.314.044A10.962 10.962 0 0 1 0 103.262c0-12.546 9.172-11.027 9.582-10.074 1.85-.775 5.56.826 5.56 8.175 0 3.54-.4 5.977-1.478 7.539a.174.174 0 0 1-.314-.06c-.208-.934-.75-3.482-1.009-5.739-.594-5.173-3.441-5.571-3.441-5.571zm0 0" transform="translate(0 -84.521)" style="fill:#ffd659"/>
    <path data-name="Path 56" d="M72.513 93.19c-.165-.384-1.752-.859-3.587-.471.325.079.57.282.871.817a3.885 3.885 0 0 0 1.743 1.644c2 .923 3.258 2.848 3.857 6.186a8.875 8.875 0 0 1-.065 2.234c.275 2.124.756 4.379.949 5.245a.174.174 0 0 0 .314.06c1.079-1.563 1.478-4 1.478-7.539 0-7.35-3.71-8.95-5.56-8.176zm0 0" transform="translate(-62.931 -84.524)" style="fill:#ffbd54"/>
    <path data-name="Path 57" d="M133.4 135.327c0 1.63-.983 2.952-2.2 2.952s-1.918-1.518-1.918-3.148.7-2.756 1.918-2.756 2.2 1.325 2.2 2.952zm0 0" transform="translate(-118.045 -120.863)" style="fill:#e8916f"/>
    <path data-name="Path 58" d="M335.406 135.327c0 1.63.983 2.952 2.2 2.952s1.918-1.518 1.918-3.148-.7-2.756-1.918-2.756-2.2 1.325-2.2 2.952zm0 0" transform="translate(-306.236 -120.863)" style="fill:#d98868"/>
    <path data-name="Path 59" d="M230.246 271.543h4.48v7.157h-4.48zm0 0" transform="translate(-210.222 -247.927)" style="fill:#d98868"/>
    <path data-name="Path 60" d="M163.285 54.735v-5.987a7.6 7.6 0 0 1 7.6-7.6h.919a7.6 7.6 0 0 1 7.6 7.6v5.987a8.057 8.057 0 0 1-8.057 8.057h-.013a8.057 8.057 0 0 1-8.049-8.057zm0 0" transform="translate(-149.084 -37.566)" style="fill:#ebad88"/>
    <path data-name="Path 61" d="M242.345 41.145h-.908a7.7 7.7 0 0 0-.89.053 7.6 7.6 0 0 1 6.72 7.545v6a8.057 8.057 0 0 1-6.72 7.939 8.15 8.15 0 0 0 1.344.112 8.057 8.057 0 0 0 8.063-8.051v-6a7.6 7.6 0 0 0-7.609-7.598zm0 0" transform="translate(-219.627 -37.566)" style="fill:#e8916f"/>
    <path data-name="Path 62" d="M156.434 331.061v.99a.522.522 0 0 1-.522.522h-19.921a.522.522 0 0 1-.522-.522v-.99c0-4.4 3.1-7.959 6.926-7.959h7.113c3.825-.002 6.926 3.563 6.926 7.959zm0 0" transform="translate(-123.687 -295.002)" style="fill:#685c79"/>
    <path data-name="Path 63" d="M268.676 323.1h-2.688c3.825 0 6.926 3.563 6.926 7.959v1.512h2.166a.521.521 0 0 0 .522-.522v-.99c-.002-4.394-3.102-7.959-6.926-7.959zm0 0" transform="translate(-242.856 -295.002)" style="fill:#594f69"/>
    <path data-name="Path 64" d="M217.395 323.1h6.715l-3.357 9.471zm0 0" transform="translate(-198.488 -295.002)" style="fill:#f60"/>
    <g data-name="Group 3">
        <path data-name="Path 65" d="M214.914 210.512a.652.652 0 0 0-.85.358 3.023 3.023 0 0 1-2.946 1.551 3.407 3.407 0 0 1-3.127-1.6.652.652 0 0 0-1.17.577 4.678 4.678 0 0 0 4.3 2.323 4.29 4.29 0 0 0 4.154-2.364.653.653 0 0 0-.361-.845zm0 0" transform="translate(-188.774 -192.161)" style="fill:#d98868"/>
        <path data-name="Path 66" d="M272.526 150.507a6.665 6.665 0 0 0-3.507.279.652.652 0 1 0 .437 1.229 5.443 5.443 0 0 1 2.764-.24.652.652 0 0 0 .306-1.268zm0 0" transform="translate(-245.226 -137.312)" style="fill:#d98868"/>
        <path data-name="Path 67" d="M195.935 152.015a.652.652 0 0 0 .437-1.229 6.667 6.667 0 0 0-3.508-.279.652.652 0 0 0 .3 1.269 5.441 5.441 0 0 1 2.771.239zm0 0" transform="translate(-175.637 -137.312)" style="fill:#d98868"/>
    </g>
    <path data-name="Path 68" d="m201.7 323.874-2.4-10.1a.261.261 0 0 0-.337-.187l-2.194.735a.348.348 0 0 0-.237.33v3.616a.261.261 0 0 0 .108.211l1.095.793a.261.261 0 0 1 .108.211v1.454a.26.26 0 0 0 .108.211zm0 0" transform="translate(-179.436 -286.303)" style="fill:#50475e"/>
    <path data-name="Path 69" d="m256 323.874 2.4-10.1a.261.261 0 0 1 .337-.187l2.194.735a.348.348 0 0 1 .237.33v3.616a.261.261 0 0 1-.108.211l-1.095.793a.261.261 0 0 0-.108.211v1.454a.26.26 0 0 1-.108.211zm0 0" transform="translate(-233.736 -286.303)" style="fill:#50475e"/>
    <path data-name="Path 70" d="M142.555 12.784s.671.27 1.36-1.02c.787-1.475 2.863-2.3 5.35-2.21 2.931.106 4.222-.867 4.87-1.9a.087.087 0 0 1 .156.019c.844 2.582 2 1.933 2.759 4.265a1.153 1.153 0 0 0 1.61.844s3.208-1.857 1.555-4.806c.284-5.926-4.371-6.277-4.371-6.277S153.716-1 147.884.406c-8.415 2.025-6.921 7.929-6.921 7.929a3.267 3.267 0 0 0 1.592 4.449zm0 0" transform="translate(-128.389 -.001)" style="fill:#8c4a37"/>
    <path data-name="Path 71" d="M254.958 7.978c.284-5.926-4.371-6.277-4.371-6.277s-1.694-2.147-6.2-1.614A5.486 5.486 0 0 1 247.9 1.7s4.655.351 4.371 6.277a3.153 3.153 0 0 1-.492 3.92l.014.042a1.154 1.154 0 0 0 1.611.844s3.207-1.856 1.554-4.805zm0 0" transform="translate(-223.133 -.002)" style="fill:#804231"/>
</svg>
