<svg data-name="conversation (2)" xmlns="http://www.w3.org/2000/svg" width="43.08" height="41.665" viewBox="0 0 43.08 41.665">
    <path data-name="Path 4" d="M185.846 326.427h6.105c1.993.6 3.718 1.764 3.718 3.107v7.973h-13.541v-7.973c0-1.343 1.725-2.51 3.718-3.107z" transform="translate(-167.358 -300.999)" style="fill-rule:evenodd;fill:#ebd2ff"/>
    <path data-name="Path 5" d="M268.024 329.534v7.973h2.291v-7.973c0-1.343-1.725-2.51-3.718-3.107h-2.291c1.994.597 3.718 1.764 3.718 3.107z" transform="translate(-242.359 -300.999)" style="fill:#d7bef0;fill-rule:evenodd"/>
    <path data-name="Path 6" d="M89.406 437.714h3.152l2.58-.41 2.555.41h10.119l2.516-.566 2.618.566h3.154v5.523H89.406z" transform="translate(-81.212 -401.573)" style="fill:#d09080;fill-rule:evenodd"/>
    <path data-name="Path 7" d="M0 350.1v-11.743a2.639 2.639 0 0 1 2.629-2.632H6.97c.075 0 .148.005.223.01a2.016 2.016 0 0 1 1.8.79l3.531 4.676a.807.807 0 0 0 .722.361h4.424a2.012 2.012 0 1 1 0 4.024H11.8a2.007 2.007 0 0 1-1.6-.8l-.6-.792v7.116H1.005A1.244 1.244 0 0 1 0 350.1z" transform="translate(0 -309.445)" style="fill:#ff6978;fill-rule:evenodd"/>
    <path data-name="Path 8" d="M316.875 350.1v-11.743a2.638 2.638 0 0 0-2.629-2.632h-4.339c-.075 0-.151.005-.223.01a2.018 2.018 0 0 0-1.806.79l-3.531 4.676a.812.812 0 0 1-.722.361H299.2a2.012 2.012 0 1 0 0 4.024h5.874a2.007 2.007 0 0 0 1.6-.8l.6-.792v7.116h8.591a1.244 1.244 0 0 0 1.01-1.01z" transform="translate(-273.796 -309.445)" style="fill:#ccf49f;fill-rule:evenodd"/>
    <path data-name="Path 9" d="M201.215 81.774h11.53l2.918 2.917c.231.231.5.1.5-.208v-2.71a2.71 2.71 0 0 0 2.7-2.7v-6.82a2.71 2.71 0 0 0-2.7-2.7h-14.948a2.71 2.71 0 0 0-2.7 2.7v6.82a2.71 2.71 0 0 0 2.7 2.701z" transform="translate(-182.951 -63.947)" style="fill:#ecf4ff;fill-rule:evenodd"/>
    <path data-name="Path 10" d="M11.253 23.51h12.13a3.6 3.6 0 0 0 3.585-3.585v-7.932a3.6 3.6 0 0 0-3.585-3.585H7.837a3.6 3.6 0 0 0-3.585 3.585v7.931a3.6 3.6 0 0 0 3.585 3.586v2.712a.279.279 0 0 0 .5.205z" transform="translate(-3.862 -8.408)" style="fill:#ecf4ff;fill-rule:evenodd"/>
    <path data-name="Path 11" d="M49.869 44.027a.688.688 0 0 1 0-1.377h13.107a.688.688 0 0 1 0 1.377zm0 7.448a.687.687 0 0 1 0-1.374h6.555a.687.687 0 1 1 0 1.374zm0-3.725a.687.687 0 0 1 0-1.374h13.107a.687.687 0 1 1 0 1.374z" transform="translate(-44.675 -39.512)" style="fill:#477b9e"/>
    <g data-name="Group 2">
        <path data-name="Path 12" d="M221.946 242.4a3.822 3.822 0 1 1-7.643 0v-4.09a2.145 2.145 0 0 1 2.141-2.138h4.933a.511.511 0 0 1 .569.569z" transform="translate(-196.556 -217.487)" style="fill:#ffcbbe;fill-rule:evenodd"/>
        <path data-name="Path 13" d="M214.3 238.31v1.234h7.643v-2.8a.511.511 0 0 0-.569-.569h-4.934a2.145 2.145 0 0 0-2.14 2.135z" transform="translate(-196.556 -217.137)" style="fill:#ffe5a0;fill-rule:evenodd"/>
        <path data-name="Path 14" d="M10.686 242.4a3.82 3.82 0 1 0 7.641 0v-4.09a2.143 2.143 0 0 0-2.138-2.138h-3.365a2.143 2.143 0 0 0-2.138 2.138z" transform="translate(-9.707 -217.487)" style="fill:#ffcbbe;fill-rule:evenodd"/>
        <path data-name="Path 15" d="M425.589 242.4a3.822 3.822 0 0 1-7.643 0v-4.09a2.145 2.145 0 0 1 2.138-2.138h3.367a2.145 2.145 0 0 1 2.138 2.138z" transform="translate(-383.486 -217.487)" style="fill:#d8a595;fill-rule:evenodd"/>
        <path data-name="Path 16" d="M452.11 263.6a3.819 3.819 0 0 1-4.967 3.645 3.845 3.845 0 0 0 2.658-3.273 5.084 5.084 0 0 0 2.3-.239l.005-4.227v4.094z" transform="translate(-410.007 -238.766)" style="fill:#d09080;fill-rule:evenodd"/>
        <path data-name="Path 17" d="M18.328 238.309v1.491a2.854 2.854 0 0 1-2.476-.223c-.4-.229-.473-.229-.52.138-.14 1.076-.623 4.037-4.643 2.824v-4.227a2.142 2.142 0 0 1 2.138-2.138h3.363a2.143 2.143 0 0 1 2.138 2.135z" transform="translate(-9.707 -217.293)" style="fill:#d09080;fill-rule:evenodd"/>
        <path data-name="Path 18" d="M417.945 238.309v1.491a2.86 2.86 0 0 0 2.478-.223c.4-.229.47-.229.517.138.14 1.076.626 4.037 4.643 2.824l.005-4.227a2.145 2.145 0 0 0-2.138-2.138h-3.367a2.145 2.145 0 0 0-2.138 2.135z" transform="translate(-383.485 -217.293)" style="fill:#477b9e;fill-rule:evenodd"/>
        <path data-name="Path 19" d="M455.148 238.31v4.09a3.537 3.537 0 0 1-.018.372 5.084 5.084 0 0 0 2.3-.239l.005-4.227a2.144 2.144 0 0 0-1.99-2.133 1.4 1.4 0 0 0-.148-.005h-2.287a2.145 2.145 0 0 1 2.138 2.142z" transform="translate(-415.337 -217.294)" style="fill:#365e7d;fill-rule:evenodd"/>
        <path data-name="Path 20" d="M42.532 277.114a3.837 3.837 0 0 1-2.676 3.645 3.819 3.819 0 0 0 4.967-3.645v-2.606a2.841 2.841 0 0 1-2.291-.125z" transform="translate(-36.203 -252.335)" style="fill:#f7beaf;fill-rule:evenodd"/>
        <path data-name="Path 21" d="M45.725 236.172a2.143 2.143 0 0 1 2.138 2.138v1.364a2.84 2.84 0 0 0 2.291.125v-1.489a2.143 2.143 0 0 0-2.138-2.138z" transform="translate(-41.534 -217.157)" style="fill:#be694f;fill-rule:evenodd"/>
        <path data-name="Path 22" d="M246.175 275.826a3.837 3.837 0 0 1-2.676 3.645 3.819 3.819 0 0 0 4.967-3.645v-2.86h-2.291z" transform="translate(-223.203 -251.043)" style="fill:#f7beaf;fill-rule:evenodd"/>
        <path data-name="Path 23" d="M267.057 236.741v2.8h2.291v-2.8a.511.511 0 0 0-.569-.569h-2.291a.511.511 0 0 1 .569.569z" transform="translate(-244.173 -217.137)" style="fill:#f2ce7e;fill-rule:evenodd"/>
        <path data-name="Path 24" d="M80.018 396.221a.153.153 0 0 0-.278.094V406h2.291v-7.116z" transform="translate(-72.432 -364.338)" style="fill:#cf4351;fill-rule:evenodd"/>
        <path data-name="Path 25" d="M477.06 338.537v11.748a1.241 1.241 0 0 1-1 1.005h2.289a1.244 1.244 0 0 0 1.005-1.005v-11.748a2.64 2.64 0 0 0-2.328-2.614 3.811 3.811 0 0 1-.925.582 2.628 2.628 0 0 1 .959 2.032z" transform="translate(-436.271 -309.625)" style="fill:#b3e59f;fill-rule:evenodd"/>
        <path data-name="Path 26" d="M198.8 79.741a2.716 2.716 0 0 0 2.676 2.317H213l2.918 2.917c.231.231.5.1.5-.208v-2.71a2.71 2.71 0 0 0 2.7-2.7v-6.82a2.708 2.708 0 0 0-2.317-2.673 2.651 2.651 0 0 1 .026.382v6.82a2.708 2.708 0 0 1-2.7 2.7H199.18a3.152 3.152 0 0 1-.38-.025z" transform="translate(-183.183 -64.232)" style="fill:#ddeafb;fill-rule:evenodd"/>
        <path data-name="Path 27" d="M26.454 19.409A3.588 3.588 0 0 1 22.869 23H7.323a3.591 3.591 0 0 1-1.115-.179 3.6 3.6 0 0 0 3.406 2.468V28a.279.279 0 0 0 .5.205l2.917-2.917H25.16a3.6 3.6 0 0 0 3.585-3.588v-7.931a3.6 3.6 0 0 0-2.471-3.406 3.529 3.529 0 0 1 .179 1.115v7.932z" transform="translate(-5.639 -10.184)" style="fill:#ddeafb;fill-rule:evenodd"/>
        <path data-name="Path 28" d="M382.285 443.327h2.291v5.523h-2.291z" transform="translate(-350.256 -407.186)" style="fill:#be694f;fill-rule:evenodd"/>
    </g>
</svg>
