<svg xmlns="http://www.w3.org/2000/svg" width="31.094" height="31.094" viewBox="0 0 31.094 31.094">
    <path data-name="Path 132" d="M88.9 328.035a.518.518 0 0 0-.518.518v7.19a1.038 1.038 0 0 1-1.036 1.036H69.073a1.038 1.038 0 0 1-1.036-1.036v-7.257a.518.518 0 1 0-1.036 0v7.257a2.075 2.075 0 0 0 2.073 2.073H87.34a2.075 2.075 0 0 0 2.073-2.073v-7.19a.518.518 0 0 0-.513-.518z" transform="translate(-62.66 -306.723)" style="fill:#8d8c8c"/>
    <path data-name="Path 133" d="M112 351.462a2.464 2.464 0 0 0 2.462 2.462h11.66a2.462 2.462 0 1 0 0-4.923h-1.943a.518.518 0 0 0-.518.518v3.368h-9.2a1.425 1.425 0 1 1 0-2.85h6.706a.518.518 0 1 0 0-1.036h-6.706a2.464 2.464 0 0 0-2.461 2.461zm12.7-1.425h1.425a1.425 1.425 0 0 1 0 2.85H124.7z" transform="translate(-104.745 -326.392)" style="fill:#8d8c8c"/>
    <path data-name="Path 134" d="M172.664 98.036a3.646 3.646 0 0 1 3.483 2.608.518.518 0 1 0 .995-.291 4.665 4.665 0 0 0-9.142 1.31 4.64 4.64 0 0 0 .989 2.866.518.518 0 0 0 .064.081 4.661 4.661 0 0 0 7.255-.036.52.52 0 0 0 .079-.508 3.261 3.261 0 0 0-1.6-1.722 2.271 2.271 0 1 0-4.255 0 3.267 3.267 0 0 0-1.13.913 3.631 3.631 0 0 1 3.262-5.221zm-1.257 5.088a.518.518 0 0 0 .281-.819 1.233 1.233 0 1 1 1.952 0 .519.519 0 0 0 .281.819 2.217 2.217 0 0 1 1.366 1.044 3.621 3.621 0 0 1-5.245 0 2.218 2.218 0 0 1 1.365-1.044z" transform="translate(-157.117 -90.717)" style="fill:#8d8c8c"/>
    <path data-name="Path 135" d="M1.054 13.895a4.657 4.657 0 0 0 7.222 0 .52.52 0 0 0 .065-.082 4.664 4.664 0 0 0-2.963-7.475V2.073a1.038 1.038 0 0 1 1.036-1.037h2.51l.256 1.021a2.07 2.07 0 0 0 2.011 1.57h8.714a.518.518 0 1 0 0-1.036h-8.714a1.035 1.035 0 0 1-1.005-.785l-.192-.77h14.688a1.038 1.038 0 0 1 1.036 1.036v4.266a4.668 4.668 0 0 0-2.963 7.476.518.518 0 0 0 .064.081 4.657 4.657 0 0 0 7.222 0 .52.52 0 0 0 .065-.082A4.659 4.659 0 0 0 26.755 6.3V2.073A2.075 2.075 0 0 0 24.682 0H6.414a2.075 2.075 0 0 0-2.073 2.073V6.8a.519.519 0 0 0 .494.522 3.627 3.627 0 0 1 3.087 5.219 3.268 3.268 0 0 0-1.13-.913 2.271 2.271 0 1 0-4.255 0 3.267 3.267 0 0 0-1.13.913 3.626 3.626 0 0 1 .5-3.954.518.518 0 1 0-.787-.674 4.658 4.658 0 0 0-.132 5.9.507.507 0 0 0 .064.081zm22.755-.445a2.217 2.217 0 0 1 1.365-1.043.518.518 0 0 0 .281-.819 1.233 1.233 0 1 1 1.952 0 .519.519 0 0 0 .281.819 2.217 2.217 0 0 1 1.365 1.043 3.619 3.619 0 0 1-5.244 0zm5.879-.907a3.268 3.268 0 0 0-1.13-.913 2.271 2.271 0 1 0-4.255 0 3.267 3.267 0 0 0-1.13.913 3.627 3.627 0 1 1 6.514 0zm-26.28-.135a.518.518 0 0 0 .281-.819 1.233 1.233 0 1 1 1.952 0 .519.519 0 0 0 .281.819 2.217 2.217 0 0 1 1.365 1.042 3.619 3.619 0 0 1-5.245 0 2.218 2.218 0 0 1 1.366-1.042z" transform="translate(-.001)" style="fill:#8d8c8c"/>
    <path data-name="Path 136" d="M281.281 280h-.081a.518.518 0 1 0 0 1.036h.086a.518.518 0 1 0 0-1.036z" transform="translate(-262.495 -261.862)" style="fill:#8d8c8c"/>
    <path data-name="Path 137" d="M182.518 280a.518.518 0 1 0 0 1.036h4.2a.518.518 0 1 0 0-1.036z" transform="translate(-170.21 -261.862)" style="fill:#8d8c8c"/>
    <path data-name="Path 138" d="M50.627 280.518a.518.518 0 0 0-.518-.518h-4.462a.518.518 0 1 0 0 1.036h4.461a.518.518 0 0 0 .519-.518z" transform="translate(-42.205 -261.862)" style="fill:#8d8c8c"/>
    <path data-name="Path 139" d="M14.7 280h-.178a.518.518 0 1 0 0 1.036h.178a.518.518 0 1 0 0-1.036z" transform="translate(-13.093 -261.862)" style="fill:#8d8c8c"/>
    <path data-name="Path 140" d="M353.563 280h-3.045a.518.518 0 1 0 0 1.036h3.045a.518.518 0 1 0 0-1.036z" transform="translate(-327.327 -261.862)" style="fill:#8d8c8c"/>
    <path data-name="Path 141" d="M431.241 280h-1.335a.518.518 0 0 0 0 1.036h1.335a.518.518 0 1 0 0-1.036z" transform="translate(-401.572 -261.862)" style="fill:#8d8c8c"/>
</svg>
